HIERARCHY
ROOT root
{
	OFFSET	0	13.1	24.9
	CHANNELS 6  Xposition Yposition Zposition Xrotation Yrotation Zrotation
	JOINT spine_1
	{
		OFFSET	0	9.99999	0
		CHANNELS 3  Xrotation Yrotation Zrotation
		JOINT spine_2
		{
			OFFSET	0	112	-10
			CHANNELS 3  Xrotation Yrotation Zrotation
			JOINT spine_3
			{
				OFFSET	0	206.5	19.3
				CHANNELS 3  Xrotation Yrotation Zrotation
				JOINT spine_4
				{
					OFFSET	0	110.4	14.6
					CHANNELS 3  Xrotation Yrotation Zrotation
					JOINT neck_1
					{
						OFFSET	0	71.8	-50.3
						CHANNELS 3  Xrotation Yrotation Zrotation
						JOINT neck_2
						{
							OFFSET	0	86.2	-25.8
							CHANNELS 3  Xrotation Yrotation Zrotation
							JOINT head_ee
							{
								OFFSET	0	179.8	-8.7
								CHANNELS 3  Xrotation Yrotation Zrotation
								End Site
								{
									OFFSET	1	0	0
								}
							}
						}
					}
					JOINT left_clavicle
					{
						OFFSET	-43.2	22.4	-70.8
						CHANNELS 3  Xrotation Yrotation Zrotation
						JOINT left_shoulder
						{
							OFFSET	-93.9	-5.79999	48.7
							CHANNELS 3  Xrotation Yrotation Zrotation
							JOINT left_elbow
							{
								OFFSET	-291.4	-30.8	15.2
								CHANNELS 3  Xrotation Yrotation Zrotation
								JOINT left_lowarm_twist
								{
									OFFSET	-110.7	-3.89999	13.6
									CHANNELS 3  Xrotation Yrotation Zrotation
									JOINT left_hand
									{
										OFFSET	-110.7	-3.89999	13.6
										CHANNELS 3  Xrotation Yrotation Zrotation
										JOINT left_ee
										{
											OFFSET	-80.8	-5.10001	12.1
											CHANNELS 3  Xrotation Yrotation Zrotation
											End Site
											{
												OFFSET	1	0	0
											}
										}
									}
								}
							}
						}
					}
					JOINT right_clavicle
					{
						OFFSET	43.2	22.4	-70.8
						CHANNELS 3  Xrotation Yrotation Zrotation
						JOINT right_shoulder
						{
							OFFSET	93.9	-5.79999	48.7
							CHANNELS 3  Xrotation Yrotation Zrotation
							JOINT right_elbow
							{
								OFFSET	291.4	-30.8	15.2
								CHANNELS 3  Xrotation Yrotation Zrotation
								JOINT right_lowarm_twist
								{
									OFFSET	110.7	-3.89999	13.6
									CHANNELS 3  Xrotation Yrotation Zrotation
									JOINT right_hand
									{
										OFFSET	110.7	-3.89999	13.6
										CHANNELS 3  Xrotation Yrotation Zrotation
										JOINT right_ee
										{
											OFFSET	80.8	-5.10001	12.1
											CHANNELS 3  Xrotation Yrotation Zrotation
											End Site
											{
												OFFSET	1	0	0
											}
										}
									}
								}
							}
						}
					}
				}
			}
		}
	}
	JOINT left_hip
	{
		OFFSET	-82.8	-127.5	0.300001
		CHANNELS 3  Xrotation Yrotation Zrotation
		JOINT left_knee
		{
			OFFSET	-28.2	-396.7	2.2
			CHANNELS 3  Xrotation Yrotation Zrotation
			JOINT left_ankle
			{
				OFFSET	-11.7	-411.3	35.4
				CHANNELS 3  Xrotation Yrotation Zrotation
				JOINT left_toes
				{
					OFFSET	0	-60	-88.6
					CHANNELS 3  Xrotation Yrotation Zrotation
					JOINT left_foot_ee
					{
						OFFSET	-22.5	-16.5	-42.2
						CHANNELS 3  Xrotation Yrotation Zrotation
						End Site
						{
							OFFSET	1	0	0
						}
					}
				}
			}
		}
	}
	JOINT right_hip
	{
		OFFSET	82.8	-127.5	0.300001
		CHANNELS 3  Xrotation Yrotation Zrotation
		JOINT right_knee
		{
			OFFSET	28.2	-396.7	2.2
			CHANNELS 3  Xrotation Yrotation Zrotation
			JOINT right_ankle
			{
				OFFSET	11.7	-411.3	35.4
				CHANNELS 3  Xrotation Yrotation Zrotation
				JOINT right_toes
				{
					OFFSET	0	-60	-88.6
					CHANNELS 3  Xrotation Yrotation Zrotation
					JOINT right_foot_ee
					{
						OFFSET	22.5	-16.5	-42.2
						CHANNELS 3  Xrotation Yrotation Zrotation
						End Site
						{
							OFFSET	1	0	0
						}
					}
				}
			}
		}
	}
}
MOTION
Frames: 9
Frame Time: 0.02
3177.02 653.055 -1669.29 -3.66208916081 -16.7011244002 -1.03146678134 -1.14095 0.604675 1.37344 -1.14004 0.516063 1.40912 -1.12619 0.179223 1.48989 -1.12905 0.41225 1.44291 0.127374 9.11065 -2.73309 0.440077 18.4603 -2.03733 -0.0 0.0 -0.0 4.95275 20.849 9.63007 -28.9969 -33.8073 59.1871 0.594096 -16.3992 0.0856068 -0.983615 -0.035694 0.12054 0.867775 -12.7055 0.443766 -0.0 0.0 -0.0 10.5117 27.9279 -19.7918 7.68412 15.9602 -56.4377 1.72863 40.5704 -0.638975 56.6671 1.48636 6.7921 4.08673 10.9942 -23.5145 0.0 0.0 0.0 31.1141 22.4923 -3.29868 -11.2681 0.297499 1.7009 19.02 -25.7307 -3.10593 -29.9739 0.0 0.0 -0.0 0.0 -0.0 -16.6454 10.1127 -1.11298 -8.58291 -0.25709 -1.2909 11.0279 9.2237 1.63348 -18.8355 0.0 0.0 0.0 0.0 0.0 
3184.29341842 653.244 -1693.61989701 -3.43067645195 -16.3765844215 -0.23250793334 -1.28976 0.732379 1.29648 -1.28906 0.648404 1.34045 -1.27273 0.320108 1.4542 -1.27527 0.545733 1.38542 1.20597 8.67313 -2.68341 1.527 17.5562 -2.17973 -0.0 0.0 -0.0 5.18726 18.4725 10.0503 -31.3986 -35.802 57.8638 0.563691 -15.6018 0.0772256 -2.43582 -0.0921673 0.297358 0.403115 -14.5188 -3.46452 -0.0 0.0 -0.0 9.97686 28.1638 -18.5681 5.7627 14.8405 -57.901 1.81568 41.9654 -0.696396 58.3622 1.6303 6.9548 4.45632 11.98 -25.7456 0.0 0.0 0.0 30.2168 24.8709 -4.64712 -11.2574 0.297377 1.69927 22.4434 -27.821 -3.6816 -29.8954 0.0 0.0 -0.0 0.0 -0.0 -16.4533 9.61987 -0.85859 -13.0061 -0.313395 -1.96709 8.27952 11.0604 1.25223 -19.5448 0.0 0.0 0.0 0.0 0.0 
3184.21376768 653.244 -1693.64356669 -3.42740092671 -16.1894376449 -0.220825586813 -1.28976 0.732379 1.29648 -1.28906 0.648404 1.34045 -1.27273 0.320108 1.4542 -1.27527 0.545733 1.38542 1.20597 8.67313 -2.68341 1.527 17.5562 -2.17973 -0.0 0.0 -0.0 5.18726 18.4725 10.0503 -31.3986 -35.802 57.8638 0.563691 -15.6018 0.0772256 -2.43582 -0.0921673 0.297358 0.403115 -14.5188 -3.46452 -0.0 0.0 -0.0 9.97686 28.1638 -18.5681 5.7627 14.8405 -57.901 1.81568 41.9654 -0.696396 58.3622 1.6303 6.9548 4.45632 11.98 -25.7456 0.0 0.0 0.0 30.2168 24.8709 -4.64712 -11.2574 0.297377 1.69927 22.4434 -27.821 -3.6816 -29.8954 0.0 0.0 -0.0 0.0 -0.0 -16.4533 9.61987 -0.85859 -13.0061 -0.313395 -1.96709 8.27952 11.0604 1.25223 -19.5448 0.0 0.0 0.0 0.0 0.0 
3184.12632279 653.244 -1693.66922641 -3.4238577027 -15.9841850832 -0.208038500684 -1.28976 0.732379 1.29648 -1.28906 0.648404 1.34045 -1.27273 0.320108 1.4542 -1.27527 0.545733 1.38542 1.20597 8.67313 -2.68341 1.527 17.5562 -2.17973 -0.0 0.0 -0.0 5.18726 18.4725 10.0503 -31.3986 -35.802 57.8638 0.563691 -15.6018 0.0772256 -2.43582 -0.0921673 0.297358 0.403115 -14.5188 -3.46452 -0.0 0.0 -0.0 9.97686 28.1638 -18.5681 5.7627 14.8405 -57.901 1.81568 41.9654 -0.696396 58.3622 1.6303 6.9548 4.45632 11.98 -25.7456 0.0 0.0 0.0 30.2168 24.8709 -4.64712 -11.2574 0.297377 1.69927 22.4434 -27.821 -3.6816 -29.8954 0.0 0.0 -0.0 0.0 -0.0 -16.4533 9.61987 -0.85859 -13.0061 -0.313395 -1.96709 8.27952 11.0604 1.25223 -19.5448 0.0 0.0 0.0 0.0 0.0 
3190.50862698 654.434 -1708.15738261 -1.95374977581 -13.8279124067 0.107873616692 -1.72904 0.681631 1.39784 -1.72815 0.591311 1.43837 -1.71186 0.230076 1.53804 -1.71485 0.470066 1.48242 1.89451 8.31294 -1.52037 2.15265 15.8939 -1.01135 -0.0 0.0 -0.0 4.52542 14.6841 9.04671 -28.7399 -37.8145 59.1661 0.509436 -14.1636 0.0632896 -5.71832 -0.236233 0.691456 0.173435 -17.5603 -6.31013 -0.0 0.0 -0.0 10.3467 28.0932 -19.4027 6.06513 9.78036 -58.8146 1.85676 42.6031 -0.724031 57.445 1.55182 6.86729 4.37082 8.86098 -26.6698 0.0 0.0 0.0 27.0275 24.5648 -3.8639 -9.40918 0.271571 1.41686 24.7205 -29.9184 -4.10323 -30.6314 0.0 0.0 -0.0 0.0 -0.0 -12.8849 10.4242 -2.52114 -23.8537 -0.230017 -3.62695 8.00558 7.55643 1.18912 -21.2573 0.0 0.0 0.0 0.0 0.0 
3189.77410618 656.63 -1739.37255746 -0.452063805932 -13.1525158454 0.604820379685 -1.96139 0.612585 1.34917 -1.96053 0.525501 1.3854 -1.94643 0.172797 1.47159 -1.94923 0.403015 1.42585 1.98903 8.55714 -2.58081 2.3209 17.202 -2.18436 -0.0 0.0 -0.0 4.14377 11.9068 8.38431 -28.2059 -41.6532 60.9806 0.473089 -13.1897 0.0546954 -8.10525 -0.355075 0.972594 -0.313582 -18.1939 -9.85425 -0.0 0.0 -0.0 10.3211 27.8968 -19.3687 2.83965 8.62519 -59.3133 1.86118 42.671 -0.727028 58.2709 1.62243 6.94615 4.33624 6.96183 -27.3226 0.0 0.0 0.0 22.2596 26.3136 -3.11893 -8.16853 0.249143 1.22781 30.5397 -31.4162 -4.96413 -31.5595 0.0 0.0 -0.0 0.0 -0.0 -5.2798 9.82208 -3.38139 -40.5687 0.503342 -6.0777 6.73201 3.58883 0.987614 -22.9727 0.0 0.0 0.0 0.0 0.0 
3190.14431052 656.63 -1739.30417398 -0.452629096515 -13.4553128555 0.602363844447 -1.96139 0.612585 1.34917 -1.96053 0.525501 1.3854 -1.94643 0.172797 1.47159 -1.94923 0.403015 1.42585 1.98903 8.55714 -2.58081 2.3209 17.202 -2.18436 -0.0 0.0 -0.0 4.14377 11.9068 8.38431 -28.2059 -41.6532 60.9806 0.473089 -13.1897 0.0546954 -8.10525 -0.355075 0.972594 -0.313582 -18.1939 -9.85425 -0.0 0.0 -0.0 10.3211 27.8968 -19.3687 2.83965 8.62519 -59.3133 1.86118 42.671 -0.727028 58.2709 1.62243 6.94615 4.33624 6.96183 -27.3226 0.0 0.0 0.0 22.2596 26.3136 -3.11893 -8.16853 0.249143 1.22781 30.5397 -31.4162 -4.96413 -31.5595 0.0 0.0 -0.0 0.0 -0.0 -5.2798 9.82208 -3.38139 -40.5687 0.503342 -6.0777 6.73201 3.58883 0.987614 -22.9727 0.0 0.0 0.0 0.0 0.0 
3199.42735982 663.352 -1763.14305437 1.8076256185 -10.8829740234 1.261702081 -2.7378 0.374733 1.28606 -2.73692 0.292145 1.3073 -2.72892 -0.0529121 1.33849 -2.73139 0.159123 1.33005 1.96256 8.51929 -2.71548 2.29931 17.2502 -2.33323 -0.0 0.0 -0.0 4.01364 6.23849 8.00602 -25.02 -44.658 60.4776 0.550406 -15.2514 0.0736919 -9.08543 -0.40726 1.08659 -0.710027 -20.3859 -13.4458 -0.0 0.0 -0.0 10.6399 27.3945 -20.1423 2.00349 4.35331 -59.814 1.81636 41.976 -0.69685 59.2821 1.71043 7.04131 4.2472 5.80735 -27.1879 0.0 0.0 0.0 17.5756 26.229 -2.56806 -7.8339 0.242394 1.1769 32.6312 -32.0289 -5.26332 -32.9933 0.0 0.0 -0.0 0.0 -0.0 5.88308 10.7847 -4.73595 -61.5598 2.37075 -8.69501 11.6596 6.02069 1.69643 -19.9372 0.0 0.0 0.0 0.0 0.0 
3199.59692489 663.352 -1763.10240884 1.80825671704 -10.9864616198 1.26502907185 -2.7378 0.374733 1.28606 -2.73692 0.292145 1.3073 -2.72892 -0.0529121 1.33849 -2.73139 0.159123 1.33005 1.96256 8.51929 -2.71548 2.29931 17.2502 -2.33323 -0.0 0.0 -0.0 4.01364 6.23849 8.00602 -25.02 -44.658 60.4776 0.550406 -15.2514 0.0736919 -9.08543 -0.40726 1.08659 -0.710027 -20.3859 -13.4458 -0.0 0.0 -0.0 10.6399 27.3945 -20.1423 2.00349 4.35331 -59.814 1.81636 41.976 -0.69685 59.2821 1.71043 7.04131 4.2472 5.80735 -27.1879 0.0 0.0 0.0 17.5756 26.229 -2.56806 -7.8339 0.242394 1.1769 32.6312 -32.0289 -5.26332 -32.9933 0.0 0.0 -0.0 0.0 -0.0 5.88308 10.7847 -4.73595 -61.5598 2.37075 -8.69501 11.6596 6.02069 1.69643 -19.9372 0.0 0.0 0.0 0.0 0.0 
